# xmcd CD database file
#
# Track frame offsets:
#	151
#	13282
#	27327
#	39326
#	51807
#	64372
#	76745
#	88722
#	102899
#	113654
#	124969
#	138630
#	152307
#
# Disc length: 2193 seconds
#
# Revision: 0
# Processed by: cddbd v1.5.1PL2 Copyright (c) Steve Scherf et al.
# Submitted via: CDex 1.51
#
DISCID=a4088f0d
DTITLE=Dizzy Gillespie - Great Moments: Rare Sessions
DYEAR=2002
DGENRE=Jazz
TTITLE0=Blue n' Boogie
TTITLE1=Hot House
TTITLE2=Groovin' High
TTITLE3=Dizzy Atmosphere
TTITLE4=All The Things You Are
TTITLE5=Things To Come
TTITLE6=He Beeped When He Should Have Bopped
TTITLE7=Emanon
TTITLE8=Ray's Idea
TTITLE9=Our Delight
TTITLE10=Good Dues Blues
TTITLE11=Oop Bop Sh-Bam
TTITLE12=That's Earl Brother
EXTD=YEAR: 2002
EXTT0=
EXTT1=
EXTT2=
EXTT3=
EXTT4=
EXTT5=
EXTT6=
EXTT7=
EXTT8=
EXTT9=
EXTT10=
EXTT11=
EXTT12=
PLAYORDER=
